<svg width="190" height="190" viewBox="0 0 190 190" fill="none" xmlns="http://www.w3.org/2000/svg">
<rect width="190" height="190" rx="20" fill="#0DA47D"/>
<path d="M160.147 81.0868C161.847 75.978 162.435 70.5661 161.872 65.2125C161.308 59.859 159.606 54.687 156.88 50.042C148.585 35.6365 131.914 28.2265 115.633 31.7084C111.125 26.7052 105.377 22.9736 98.9656 20.8883C92.5546 18.803 85.7066 18.4375 79.1093 19.8284C72.512 21.2193 66.3976 24.3177 61.3802 28.8125C56.3629 33.3072 52.6192 39.0401 50.5251 45.4352C45.2387 46.5169 40.2445 48.7119 35.8763 51.8735C31.5082 55.0352 27.8666 59.0906 25.195 63.7687C16.8103 78.1515 18.714 96.2932 29.9019 108.632C28.1955 113.738 27.6016 119.149 28.1599 124.503C28.7181 129.857 30.4158 135.03 33.1392 139.676C41.4443 154.087 58.1259 161.497 74.4161 158.01C77.9978 162.034 82.3986 165.249 87.3247 167.441C92.2509 169.634 97.5891 170.752 102.983 170.722C119.671 170.736 134.456 159.988 139.554 144.133C144.839 143.049 149.833 140.854 154.2 137.692C158.568 134.531 162.21 130.476 164.883 125.799C173.167 111.442 171.255 93.3988 160.147 81.0868ZM102.983 160.792C96.3218 160.802 89.8695 158.473 84.7573 154.212L85.6568 153.703L115.932 136.267C116.685 135.826 117.311 135.197 117.747 134.442C118.183 133.687 118.416 132.832 118.421 131.96V89.3708L131.22 96.758C131.348 96.8229 131.437 96.9451 131.46 97.0872V132.379C131.427 148.057 118.697 160.759 102.983 160.792ZM41.7724 134.712C38.432 128.956 37.2326 122.21 38.3851 115.66L39.2839 116.198L69.5898 133.635C70.3396 134.074 71.1933 134.305 72.0627 134.305C72.9321 134.305 73.7858 134.074 74.5357 133.635L111.556 112.34V127.085C111.552 127.161 111.532 127.236 111.495 127.303C111.459 127.371 111.408 127.429 111.346 127.474L80.681 145.12C67.0538 152.952 49.6439 148.295 41.7724 134.712ZM33.7984 68.9134C37.1622 63.1211 42.4716 58.7032 48.7866 56.4418V92.3313C48.7754 93.1984 48.9975 94.0527 49.4298 94.805C49.8622 95.5573 50.4889 96.1801 51.2446 96.6083L88.0849 117.814L75.2851 125.201C75.2158 125.237 75.1387 125.256 75.0604 125.256C74.982 125.256 74.9049 125.237 74.8357 125.201L44.2304 107.586C30.6302 99.7203 25.9661 82.363 33.7984 68.7643V68.9134ZM138.954 93.2889L101.993 71.8744L114.764 64.5171C114.833 64.4804 114.91 64.4612 114.989 64.4612C115.067 64.4612 115.144 64.4804 115.214 64.5171L145.819 82.1631C150.499 84.8571 154.313 88.8237 156.818 93.5999C159.323 98.376 160.415 103.764 159.965 109.136C159.516 114.508 157.544 119.641 154.28 123.937C151.016 128.233 146.595 131.513 141.532 133.396V97.5057C141.506 96.6401 141.255 95.7962 140.803 95.0569C140.351 94.3176 139.714 93.7083 138.954 93.2889ZM151.694 74.1778L150.794 73.6388L120.549 56.053C119.794 55.6113 118.936 55.3785 118.061 55.3785C117.186 55.3785 116.327 55.6113 115.573 56.053L78.5822 77.3482V62.6036C78.5745 62.5287 78.5872 62.4531 78.6188 62.3847C78.6505 62.3163 78.6999 62.2576 78.762 62.2148L109.367 44.5986C114.058 41.9025 119.421 40.5947 124.829 40.8281C130.238 41.0616 135.467 42.8266 139.907 45.9167C144.347 49.0068 147.813 53.2944 149.9 58.2779C151.987 63.2614 152.609 68.7348 151.693 74.058L151.694 74.1778ZM71.5984 100.317L58.7986 92.9598C58.7346 92.9212 58.6799 92.869 58.6384 92.807C58.5969 92.7449 58.5695 92.6746 58.5583 92.6008V57.3994C58.5654 51.9992 60.1132 46.7126 63.0206 42.1578C65.928 37.6029 70.075 33.968 74.9766 31.678C79.8783 29.388 85.332 28.5375 90.7002 29.2261C96.0684 29.9147 101.129 32.1138 105.291 35.5663L104.392 36.0749L74.1161 53.5111C73.3629 53.9523 72.7375 54.5812 72.3014 55.3363C71.8652 56.0913 71.6333 56.9465 71.6282 57.8179L71.5984 100.317ZM78.5523 85.3627L95.0394 75.882L111.556 85.3633V104.325L95.0991 113.806L78.5827 104.325L78.5523 85.3627Z" fill="white"/>
</svg>
