<svg width="40" height="40" viewBox="0 0 40 40" fill="none" xmlns="http://www.w3.org/2000/svg">
<path d="M31.75 8.1831C30.2217 6.63994 28.4017 5.41637 26.3958 4.5837C24.39 3.75103 22.2384 3.3259 20.0666 3.3331C10.9666 3.3331 3.54996 10.7498 3.54996 19.8498C3.54996 22.7664 4.31663 25.5998 5.74996 28.0998L3.41663 36.6664L12.1666 34.3664C14.5833 35.6831 17.3 36.3831 20.0666 36.3831C29.1666 36.3831 36.5833 28.9664 36.5833 19.8664C36.5833 15.4498 34.8666 11.2998 31.75 8.1831ZM20.0666 33.5831C17.6 33.5831 15.1833 32.9164 13.0666 31.6664L12.5666 31.3664L7.36663 32.7331L8.74996 27.6664L8.41663 27.1498C7.04587 24.9615 6.31817 22.4319 6.31663 19.8498C6.31663 12.2831 12.4833 6.11643 20.05 6.11643C23.7166 6.11643 27.1666 7.54976 29.75 10.1498C31.0293 11.4229 32.0432 12.9373 32.7327 14.6053C33.4222 16.2733 33.7736 18.0616 33.7666 19.8664C33.8 27.4331 27.6333 33.5831 20.0666 33.5831ZM27.6 23.3164C27.1833 23.1164 25.15 22.1164 24.7833 21.9664C24.4 21.8331 24.1333 21.7664 23.85 22.1664C23.5666 22.5831 22.7833 23.5164 22.55 23.7831C22.3166 24.0664 22.0666 24.0998 21.65 23.8831C21.2333 23.6831 19.9 23.2331 18.3333 21.8331C17.1 20.7331 16.2833 19.3831 16.0333 18.9664C15.8 18.5498 16 18.3331 16.2166 18.1164C16.4 17.9331 16.6333 17.6331 16.8333 17.3998C17.0333 17.1664 17.1166 16.9831 17.25 16.7164C17.3833 16.4331 17.3166 16.1998 17.2166 15.9998C17.1166 15.7998 16.2833 13.7664 15.95 12.9331C15.6166 12.1331 15.2666 12.2331 15.0166 12.2164H14.2166C13.9333 12.2164 13.5 12.3164 13.1166 12.7331C12.75 13.1498 11.6833 14.1498 11.6833 16.1831C11.6833 18.2164 13.1666 20.1831 13.3666 20.4498C13.5666 20.7331 16.2833 24.8998 20.4166 26.6831C21.4 27.1164 22.1666 27.3664 22.7666 27.5498C23.75 27.8664 24.65 27.8164 25.3666 27.7164C26.1666 27.5998 27.8166 26.7164 28.15 25.7498C28.5 24.7831 28.5 23.9664 28.3833 23.7831C28.2666 23.5998 28.0166 23.5164 27.6 23.3164Z" fill="white"/>
</svg>
